<svg width="27" height="21" viewBox="0 0 27 21" fill="none" xmlns="http://www.w3.org/2000/svg">
<path d="M22.3661 1.70337C20.6654 0.90762 18.8468 0.3293 16.9456 0C16.7121 0.422151 16.4393 0.989954 16.2512 1.44164C14.2301 1.13769 12.2276 1.13769 10.2437 1.44164C10.0557 0.989954 9.77671 0.422151 9.54113 0C7.63783 0.3293 5.81718 0.909744 4.11641 1.70759C0.685922 6.8915 -0.244026 11.9466 0.220949 16.93C2.49623 18.6291 4.70124 19.6613 6.86905 20.3367C7.40429 19.6001 7.88166 18.817 8.2929 17.9917C7.50968 17.6941 6.75952 17.3269 6.05072 16.9005C6.23876 16.7612 6.4227 16.6155 6.6004 16.4657C10.9236 18.4877 15.6209 18.4877 19.8925 16.4657C20.0723 16.6155 20.2562 16.7612 20.4422 16.9005C19.7313 17.3289 18.9791 17.6962 18.1959 17.9938C18.6071 18.817 19.0824 19.6022 19.6197 20.3388C21.7896 19.6634 23.9967 18.6313 26.2719 16.93C26.8175 11.153 25.3399 6.1443 22.3661 1.70337ZM8.88188 13.8653C7.58409 13.8653 6.5198 12.6537 6.5198 11.1783C6.5198 9.70296 7.56136 8.4893 8.88188 8.4893C10.2024 8.4893 11.2667 9.70083 11.244 11.1783C11.246 12.6537 10.2024 13.8653 8.88188 13.8653ZM17.611 13.8653C16.3132 13.8653 15.2489 12.6537 15.2489 11.1783C15.2489 9.70296 16.2905 8.4893 17.611 8.4893C18.9315 8.4893 19.9958 9.70083 19.9731 11.1783C19.9731 12.6537 18.9315 13.8653 17.611 13.8653Z" fill="#230D56"/>
</svg>
