<svg width="113" height="33" viewBox="0 0 113 33" fill="none" xmlns="http://www.w3.org/2000/svg">
<path d="M10.5477 4.48103L17.065 8.24474V15.7731L10.5477 19.5371L4.03093 15.7734V8.24504L10.5477 4.48103ZM10.5477 1.03223L1.04492 6.52064V17.4975L10.5477 22.9856L20.0507 17.4975V6.52064L10.5477 1.03223Z" fill="white"/>
<path d="M42.2503 22.8459C40.8642 22.8459 39.6637 22.5687 38.6498 22.0132C37.6353 21.4587 36.851 20.6666 36.2967 19.6377C35.7423 18.6087 35.4648 17.4009 35.4648 16.0139V7.2998H38.6386V16.0142C38.6386 16.8024 38.7882 17.4921 39.0874 18.0834C39.3862 18.6749 39.8093 19.1271 40.3568 19.4411C40.9042 19.7551 41.5422 19.9116 42.272 19.9116C43.0018 19.9116 43.6362 19.7548 44.1764 19.4411C44.716 19.1277 45.1358 18.6749 45.435 18.0834C45.7338 17.4921 45.8837 16.8024 45.8837 16.0142V7.2998H49.0358V16.0142C49.0358 17.3867 48.7583 18.5873 48.204 19.6163C47.649 20.6453 46.8651 21.4412 45.8509 22.003C44.8367 22.5651 43.6362 22.8459 42.2503 22.8459Z" fill="white"/>
<path d="M51.5742 22.6274V7.2998H54.5948L62.2118 17.1968V7.2998H65.1894V22.6268H62.387L54.5732 12.3797V22.6274H51.5742Z" fill="white"/>
<path d="M67.9688 22.6274V7.2998H71.1422V19.8243H79.5258V22.6274H67.9688Z" fill="white"/>
<path d="M88.1063 22.8678C86.9684 22.8678 85.9103 22.6667 84.9328 22.2657C83.9547 21.8641 83.097 21.3024 82.3606 20.5793C81.6236 19.8568 81.0476 19.0174 80.6314 18.0616C80.2158 17.1055 80.0078 16.0729 80.0078 14.9632C80.0078 13.8539 80.2158 12.8213 80.6314 11.8648C81.0476 10.909 81.6236 10.0694 82.3606 9.34686C83.097 8.62435 83.9547 8.06259 84.9328 7.66069C85.9103 7.25939 86.9684 7.05859 88.1063 7.05859C89.2448 7.05859 90.3069 7.25939 91.291 7.66069C92.276 8.06229 93.1373 8.62404 93.8743 9.34686C94.6107 10.0694 95.184 10.909 95.5924 11.8648C96.0008 12.821 96.2054 13.8539 96.2054 14.9632C96.2054 16.0729 96.0008 17.1055 95.5924 18.0616C95.1843 19.0177 94.6107 19.8568 93.8743 20.5793C93.1373 21.3018 92.276 21.8641 91.291 22.2657C90.3066 22.6667 89.2448 22.8678 88.1063 22.8678ZM88.1063 19.9564C88.8069 19.9564 89.4489 19.8285 90.0324 19.5732C90.6156 19.3179 91.1269 18.9675 91.5648 18.5222C92.0027 18.077 92.3455 17.5477 92.5935 16.9351C92.8414 16.3215 92.9654 15.665 92.9654 14.9644C92.9654 14.2494 92.8414 13.5886 92.5935 12.9826C92.3455 12.3772 92.0027 11.8516 91.5648 11.4063C91.1269 10.9611 90.6162 10.6107 90.0324 10.3554C89.4486 10.1001 88.8069 9.97214 88.1063 9.97214C87.4205 9.97214 86.7855 10.1001 86.2019 10.3554C85.6187 10.611 85.1074 10.9614 84.6701 11.4063C84.2322 11.8516 83.8888 12.3772 83.6409 12.9826C83.3929 13.5886 83.2689 14.2416 83.2689 14.9424C83.2689 15.6577 83.3929 16.3218 83.6409 16.9354C83.8888 17.548 84.2322 18.0773 84.6701 18.5225C85.1074 18.9678 85.6181 19.3185 86.2019 19.5735C86.7858 19.8285 87.4205 19.9564 88.1063 19.9564Z" fill="white"/>
<path d="M105.945 22.8465C104.807 22.8465 103.742 22.6457 102.749 22.2441C101.757 21.8431 100.893 21.2844 100.156 20.5694C99.4191 19.8544 98.8425 19.019 98.4269 18.0623C98.0107 17.1065 97.8027 16.0739 97.8027 14.9639C97.8027 13.8401 98.0107 12.8 98.4269 11.8438C98.8425 10.888 99.423 10.052 100.167 9.3367C100.911 8.62171 101.776 8.06357 102.761 7.66167C103.745 7.26037 104.807 7.05957 105.945 7.05957C106.792 7.05957 107.608 7.17668 108.397 7.40999C109.184 7.6436 109.918 7.97205 110.597 8.39532C111.276 8.8189 111.856 9.32977 112.337 9.92796L110.191 12.0519C109.637 11.3658 108.999 10.8477 108.277 10.4972C107.554 10.1468 106.777 9.97161 105.945 9.97161C105.26 9.97161 104.618 10.0996 104.019 10.3548C103.421 10.6104 102.903 10.9609 102.465 11.4058C102.027 11.8511 101.685 12.3767 101.437 12.9821C101.189 13.5881 101.065 14.2486 101.065 14.9639C101.065 15.6644 101.189 16.318 101.437 16.9231C101.685 17.5294 102.035 18.0548 102.487 18.5C102.94 18.9453 103.469 19.2921 104.074 19.5395C104.679 19.7882 105.34 19.9119 106.054 19.9119C106.857 19.9119 107.609 19.7439 108.309 19.4083C109.01 19.0726 109.629 18.5909 110.17 17.9629L112.249 20.0209C111.768 20.6049 111.191 21.1086 110.52 21.5322C109.849 21.9557 109.123 22.2803 108.343 22.5064C107.561 22.7333 106.762 22.8465 105.945 22.8465Z" fill="white"/>
<path d="M30.9491 26.1904L21.4461 31.6782L11.9434 26.1904V15.213L21.4461 9.72461L30.9491 15.213V26.1904Z" fill="url(#paint0_linear_2039_826)"/>
<defs>
<linearGradient id="paint0_linear_2039_826" x1="12.597" y1="35.733" x2="28.0017" y2="9.58323" gradientUnits="userSpaceOnUse">
<stop stop-color="#43499E"/>
<stop offset="0.1188" stop-color="#764395"/>
<stop offset="0.2665" stop-color="#A3378C"/>
<stop offset="0.3914" stop-color="#C42784"/>
<stop offset="0.487" stop-color="#D81680"/>
<stop offset="0.5418" stop-color="#DF0B7F"/>
<stop offset="0.8172" stop-color="#ED693C"/>
</linearGradient>
</defs>
</svg>
