<svg width="138" height="101" viewBox="0 0 138 101" fill="none" xmlns="http://www.w3.org/2000/svg">
<path d="M9.83203 91.4889L9.84969 91.5075L9.86828 91.5252C15.411 96.7907 22.4684 99.4002 30.957 99.4002C38.9324 99.4002 45.5941 96.7773 50.8641 91.5073L50.8732 91.4982L50.882 91.4889C56.1476 85.9463 58.757 78.8888 58.757 70.4002C58.757 64.9432 57.6667 60.462 55.3891 57.0455C53.1852 53.7396 50.1727 50.5979 46.3749 47.6139L46.371 47.6108C44.0257 45.7867 42.2297 44.1166 40.9599 42.6015C40.0189 41.1731 39.557 39.6463 39.557 38.0002C39.557 35.0923 41.0287 31.1594 44.2025 26.1342C47.3572 21.1393 51.7113 15.725 57.2804 9.89067L57.955 9.18394L57.2641 8.49308L51.2641 2.49309L50.6845 1.9134L50.0023 2.36815C35.5126 12.028 23.8185 23.1785 14.9386 35.8256L14.9361 35.8291C6.335 48.1933 1.95703 59.7246 1.95703 70.4002C1.95703 78.8888 4.56648 85.9463 9.83203 91.4889ZM87.4497 91.5075L87.4683 91.5252C93.011 96.7907 100.068 99.4002 108.557 99.4002C116.532 99.4002 123.194 96.7773 128.464 91.5073L128.473 91.4982L128.482 91.4889C133.748 85.9463 136.357 78.8888 136.357 70.4002C136.357 64.9432 135.267 60.462 132.989 57.0455C130.785 53.7396 127.773 50.5979 123.975 47.6139L123.971 47.6108C121.626 45.7867 119.83 44.1166 118.56 42.6015C117.619 41.1731 117.157 39.6463 117.157 38.0002C117.157 35.0923 118.629 31.1594 121.803 26.1342C124.957 21.1393 129.311 15.725 134.88 9.89067L135.555 9.18394L134.864 8.49308L128.864 2.49309L128.284 1.9134L127.602 2.36815C113.113 12.028 101.418 23.1785 92.5386 35.8256L92.5361 35.8291C83.935 48.1933 79.557 59.7246 79.557 70.4002C79.557 78.8888 82.1665 85.9463 87.432 91.4889L87.4497 91.5075Z" stroke="#E0097E" stroke-width="2"/>
</svg>
